<?xml version="1.0" standalone="no"?>
<svg id="Nederlands_verkeersbord_C2" width="300" height="300" viewBox="0 0 300 300"
xmlns="http://www.w3.org/2000/svg" version="1.1">
    <!-- based on Dutch road signs: https://en.wikipedia.org/wiki/File:Nederlands_verkeersbord_C2.svg and https://en.wikipedia.org/wiki/File:Nederlands_verkeersbord_C16.svg -->
    <circle id="rode_cirkel" cx="150" cy="150" r="150" fill="#c1121c" />
    <path id="witte_streep" fill="#f7fbf5" d="M 280.92589,177.40964 C 282.70061,168.69912 283.88103,159.19082 283.88103,149.93487 C 283.88103,140.2312 282.86342,130.78802 280.89333,121.69489 L 18.854305,121.62976 C 16.916773,130.75545 15.866598,140.2312 15.866598,149.93487 C 15.866598,159.34549 16.851646,168.56887 18.699628,177.40964 L 280.92589,177.40964" />
    <g id="voetganger">
        <path fill="#2a2d2f"
           d="M 147.90861,82.141982 C 156.36403,82.141982 163.25908,75.279797 163.25908,66.791929 C 163.25908,58.30406 156.36403,51.441876 147.90861,51.441876 C 139.42051,51.441876 132.55814,58.30406 132.55814,66.791929 C 132.55814,75.279797 139.42051,82.141982 147.90861,82.141982" />
        <path fill="#2a2d2f"
           d="M 147.90861,84.437546 C 143.18665,84.437546 138.93851,86.545217 136.13638,89.927294 L 92.41327,134.67037 L 97.96852,140.47872 L 132.81139,113.76522 C 133.51397,128.64145 136.52034,144.21207 136.52034,144.21207 L 109.10353,242.88048 L 119.34807,242.88048 L 151.60939,168.58917 L 163.2264,200.40846 L 191.08436,241.95736 L 199.44992,234.99714 L 177.17172,191.56932 L 167.18044,141.40185 L 166.92718,114.46777 L 174.62284,120.05555 L 179.94935,146.98963 L 187.60416,147.43077 L 185.27586,114.01846 L 160.2282,88.015685 C 154.64027,82.909893 147.90861,84.437546 147.90861,84.437546" />
    </g>
    <rect x="127" y="122" width="47.5" height="55.4" fill="#f7fbf5" />
</svg>