<?xml version="1.0" encoding="UTF-8" standalone="no"?>
<svg
   xmlns:dc="http://purl.org/dc/elements/1.1/"
   xmlns:cc="http://creativecommons.org/ns#"
   xmlns:rdf="http://www.w3.org/1999/02/22-rdf-syntax-ns#"
   xmlns:svg="http://www.w3.org/2000/svg"
   xmlns="http://www.w3.org/2000/svg"
   xmlns:sodipodi="http://sodipodi.sourceforge.net/DTD/sodipodi-0.dtd"
   xmlns:inkscape="http://www.inkscape.org/namespaces/inkscape"
   id="Nederlands_verkeersbord_F7"
   width="214.81248"
   height="80.937492"
   viewBox="0 0 214.8125 80.937491"
   version="1.1"
   inkscape:version="0.48.2 r9819"
   sodipodi:docname="Australia R5-50.svg">
  <metadata
     id="metadata9">
    <rdf:RDF>
      <cc:Work
         rdf:about="">
        <dc:format>image/svg+xml</dc:format>
        <dc:type
           rdf:resource="http://purl.org/dc/dcmitype/StillImage" />
        <dc:title></dc:title>
      </cc:Work>
    </rdf:RDF>
  </metadata>
  <defs
     id="defs7">
    <clipPath
       clipPathUnits="userSpaceOnUse"
       id="clipPath3441">
      <path
         inkscape:connector-curvature="0"
         d="m 233.858,445.744 99.213,0 0,-99.213 -99.213,0 0,99.213 z"
         clip-rule="evenodd"
         id="path3443" />
    </clipPath>
    <clipPath
       clipPathUnits="userSpaceOnUse"
       id="clipPath3447">
      <path
         inkscape:connector-curvature="0"
         d="m 0,842 595.276,0 0,-841.89 L 0,0.11 0,842 z"
         id="path3449" />
    </clipPath>
    <clipPath
       clipPathUnits="userSpaceOnUse"
       id="clipPath3453">
      <path
         inkscape:connector-curvature="0"
         d="m 0,841.98 595.2,0 L 595.2,0 0,0 0,841.98 z"
         id="path3455" />
    </clipPath>
  </defs>
  <sodipodi:namedview
     pagecolor="#ffffff"
     bordercolor="#666666"
     borderopacity="1"
     objecttolerance="10"
     gridtolerance="10"
     guidetolerance="10"
     inkscape:pageopacity="0"
     inkscape:pageshadow="2"
     inkscape:window-width="1280"
     inkscape:window-height="1004"
     id="namedview5"
     showgrid="false"
     fit-margin-top="0"
     fit-margin-left="0"
     fit-margin-right="0"
     fit-margin-bottom="0"
     inkscape:zoom="3.1466667"
     inkscape:cx="82.429844"
     inkscape:cy="5.6413871"
     inkscape:window-x="-8"
     inkscape:window-y="-8"
     inkscape:window-maximized="1"
     inkscape:current-layer="Nederlands_verkeersbord_F7" />
  <path
     d="m 11.137739,0.29702665 192.531451,0 c 5.9704,0 10.85528,4.88487665 10.85528,10.85310935 l 0,58.63372 c 0,5.968234 -4.88488,10.85311 -10.85528,10.85311 l -192.531451,0 c -5.968234,0 -10.853112,-4.884876 -10.853112,-10.85311 l 0,-58.63372 c 0,-5.9682327 4.882707,-10.85310935 10.853112,-10.85310935 z"
     style="fill:#ffffff;fill-opacity:1;fill-rule:evenodd;stroke:#000000;stroke-width:0.60000004;stroke-miterlimit:4;stroke-opacity:1;stroke-dasharray:none"
     id="path3337"
     inkscape:connector-curvature="0" />
  <path
     d="m 11.172476,1.7255815 192.459804,0 0.99868,0.049934 0.93139,0.1432897 c 3.99908,0.8250014 7.06896,4.200994 7.48146,8.2695528 l 0.05,0.998686 0,58.559904 c 0.0196,4.474547 -3.16323,8.360738 -7.5314,9.268239 l -0.93355,0.14329 -0.99652,0.04993 -192.459797,0 -0.996515,-0.04993 C 6.105297,78.743805 2.731476,75.678274 1.906475,71.674846 l -0.14329,-0.931383 -0.0521,-0.996515 0,-58.559904 C 1.708985,9.6043447 2.095363,8.0628948 2.855233,6.6712476 L 3.328523,5.8940094 3.873458,5.1667056 C 4.841749,3.994335 6.081423,3.065123 7.481754,2.4702535 l 0.86408,-0.3191453 0.898817,-0.232303 0.931384,-0.1432897 0.996514,-0.049934"
     style="fill:#000000;fill-opacity:1;fill-rule:evenodd;stroke:none"
     id="path3341"
     inkscape:connector-curvature="0" />
  <path
     d="m 11.246292,4.5826917 192.314338,0 0.78158,0.039079 0.64481,0.099869 c 2.77461,0.5709878 4.93047,2.9352681 5.21053,5.7576403 l 0.0413,0.78158 0,58.414443 c 0.0391,3.148032 -2.17757,5.894418 -5.25396,6.539222 l -0.6448,0.0977 -0.77941,0.04125 -192.314341,0 -0.777239,-0.04125 C 7.638043,76.025646 5.282447,73.880642 4.707117,71.099519 l -0.0977,-0.646975 -0.04125,-0.777238 0,-58.414443 C 4.563867,10.127571 4.82218,9.0377023 5.367115,8.0390165 L 5.697116,7.4984233 6.079222,6.9882251 C 6.756591,6.1675658 7.620672,5.520591 8.599818,5.1015772 L 9.19903,4.8823005 9.819952,4.7216423 l 0.646974,-0.099869 0.77941,-0.039079"
     style="fill:#ffffff;fill-opacity:1;fill-rule:evenodd;stroke:none"
     id="path3345"
     inkscape:connector-curvature="0" />
  <path
     d="m 50.898463,40.919662 9.854426,-5.025996 c 0.325659,-0.167171 0.403817,-0.887962 0.09987,-1.08987 l -6.28955,-4.159744 c -0.275724,-0.182368 -0.690396,-0.238816 -0.990002,-0.09987 l -6.26567,2.948294 c -0.340856,0.160658 -0.377764,0.768554 -0.221448,1.113752 l 2.748558,6.089813 c 0.147631,0.33 0.74033,0.388619 1.063817,0.223619 z m 31.102554,1.04862 c 0.725133,-0.09118 1.413357,0.0021 1.934411,0.39079 0.119408,0.284408 0.271382,0.581843 0.41033,0.894475 3.293493,7.490144 14.934697,4.031651 10.924756,-4.800205 -0.646975,-1.422042 -0.990001,-2.50757 -0.184539,-3.927441 L 102.3677,21.675417 c 0.2475,-0.438554 0.825,-0.466777 1.13546,0.238816 l 8.26738,18.74056 -5.7533,0 c -0.5927,0 -1.01822,2.277438 -1.01822,2.870136 l 0,12.433639 c 0,0.423356 0.38427,0.770725 0.80763,0.770725 l 6.85837,0 c 0.25618,0 0.58184,-0.37125 0.61441,-0.625264 0.63394,-4.685139 4.55487,-8.334685 9.32903,-8.334685 4.7025,0 8.74067,2.687768 9.32902,7.351196 l 28.81427,0 c 0.58835,-4.663428 4.62869,-8.223961 9.32903,-8.223961 5.17796,0 9.40067,4.222705 9.40067,9.400674 0,0.733817 -0.19757,1.211449 -0.21494,1.923556 -0.004,0.165 0.21277,0.323487 0.37777,0.323487 l 7.29475,0 c 0.45592,0 0.60138,-0.770725 0.60138,-1.226647 l 0,-15.609894 c 0,-1.773753 -2.00389,-2.891847 -2.58573,-4.164086 l -4.44415,-9.737187 c -0.15858,-0.347369 -0.64698,-0.985661 -1.32869,-0.987833 l -13.08495,-0.03256 c -3.45198,-0.01094 -5.69251,2.533624 -5.69251,5.620866 l 0.002,7.566131 c 0,0.399474 -0.58836,0.681712 -0.98783,0.681712 l -28.96407,0 c -7.55529,-7.943895 -16.04412,-16.743188 -23.5169,-24.634977 -1.53059,-1.615266 -4.43546,-2.131978 -5.77935,0.151974 L 90.103314,35.320507 c -0.455922,0.788094 -0.360396,1.456779 0.195395,2.305662 0.553619,0.844541 0.979146,1.784608 1.445923,2.707307 1.432897,2.826716 -1.135462,5.008627 -3.808033,2.653031 -0.694738,-0.612238 -0.916187,-1.196252 -1.550135,-1.877964 -1.506714,-1.619608 -2.920071,0.08684 -4.385534,0.859739 z m -46.0785,6.506655 11.050676,-5.549219 c 0.386448,-0.195396 0.282238,-0.905331 0.0977,-1.298292 l -2.770268,-5.907444 c -0.169342,-0.362567 -0.738159,-0.625264 -1.102896,-0.466777 l -5.46672,2.377306 c -2.327372,1.013884 -3.056847,3.647375 -3.210992,6.202708 l -0.197566,3.237045 c -0.04125,0.707764 0.96612,1.721648 1.600068,1.404673 z m 4.904416,17.828716 c 3.039479,0 5.516654,-2.479346 5.516654,-5.516656 0,-3.037307 -2.477175,-5.514483 -5.516654,-5.514483 -3.037308,0 -5.514483,2.477176 -5.514483,5.514483 0,3.03731 2.477175,5.516656 5.514483,5.516656 z M 82.678386,40.811109 c -1.083357,-2.637834 -3.72119,-4.413758 -6.580471,-4.413758 -3.916586,0 -7.110209,3.191453 -7.110209,7.108039 0,1.026909 0.277895,2.110266 0.694738,3.026452 L 47.292339,57.135281 c -1.304805,-2.318688 -3.797178,-3.768954 -6.465406,-3.768954 -4.085928,0 -7.42067,3.332571 -7.42067,7.42067 0,0.927043 0.290921,1.543623 0.462435,2.425072 0.03474,0.180198 -0.208422,0.379935 -0.392961,0.39079 l -5.147575,0.284408 c -0.777238,0.04125 -1.324344,-1.159344 -0.929212,-1.87145 0.295264,-0.531911 0.336514,-0.970464 0.353882,-1.560991 l 0.123751,-3.98606 c 0.07164,-2.379477 1.823687,-3.525795 2.757241,-5.649088 0.510198,-1.161515 0.631777,-2.618294 0.427698,-4.005599 -0.01303,-4.190138 0.505856,-8.936067 4.570074,-10.870478 5.811917,-2.768097 11.773638,-6.398103 17.915557,-8.267383 1.239674,-0.377763 2.064675,0.319146 2.980861,0.929212 l 7.264354,4.834943 c 0.438553,0.290921 1.081186,0.486316 1.558818,0.262698 3.714678,-1.730332 7.257841,-3.92527 11.126664,-5.290865 1.910529,-0.675198 3.009084,-0.553619 4.548362,0.751186 2.759413,2.333885 3.981718,5.527509 4.889219,8.862252 0.09336,0.345198 0.303948,0.909672 -0.01303,1.076843 l -3.224018,1.708622 z m -6.580471,8.208763 c 3.037307,0 5.514483,-2.477175 5.514483,-5.514482 0,-3.039479 -2.477176,-5.516654 -5.514483,-5.516654 -3.039479,0 -5.516654,2.477175 -5.516654,5.516654 0,3.037307 2.477175,5.514482 5.516654,5.514482 z m 46.510545,14.891277 c 3.71467,0 6.7433,-3.026454 6.7433,-6.741131 0,-3.712507 -3.02863,-6.74113 -6.7433,-6.74113 -3.71251,0 -6.74113,3.028623 -6.74113,6.74113 0,3.714677 3.02862,6.741131 6.74113,6.741131 z m 47.47232,-0.872765 c 3.7125,0 6.74112,-3.028625 6.74112,-6.741131 0,-3.714677 -3.02862,-6.74113 -6.74112,-6.74113 -3.71251,0 -6.74113,3.026453 -6.74113,6.74113 0,3.712506 3.02862,6.741131 6.74113,6.741131 z m -0.67955,-24.20945 10.64903,0 c 0.84672,0 0.81415,-0.900988 0.36908,-2.062503 l -2.06901,-5.401588 c -0.14989,-0.39079 -0.5775,-0.764212 -0.99435,-0.764212 l -8.10889,0 c -0.33652,0 -0.63612,0.403817 -0.63612,0.738159 l 0,6.567445 c 0,0.436383 0.37125,1.042107 0.79026,0.922699 z"
     style="fill:#000000;fill-opacity:1;fill-rule:evenodd;stroke:none"
     id="path3349"
     inkscape:connector-curvature="0" />
</svg>
