<?xml version="1.0" encoding="UTF-8" standalone="no"?>
<svg
   xmlns:dc="http://purl.org/dc/elements/1.1/"
   xmlns:cc="http://creativecommons.org/ns#"
   xmlns:rdf="http://www.w3.org/1999/02/22-rdf-syntax-ns#"
   xmlns:svg="http://www.w3.org/2000/svg"
   xmlns="http://www.w3.org/2000/svg"
   xmlns:sodipodi="http://sodipodi.sourceforge.net/DTD/sodipodi-0.dtd"
   xmlns:inkscape="http://www.inkscape.org/namespaces/inkscape"
   width="123.67875"
   height="61.84"
   viewBox="0 0 349.04893 174.52621"
   version="1.1"
   id="svg2"
   inkscape:version="0.48.2 r9819"
   sodipodi:docname="Australia R6-20.svg">
  <metadata
     id="metadata62">
    <rdf:RDF>
      <cc:Work
         rdf:about="">
        <dc:format>image/svg+xml</dc:format>
        <dc:type
           rdf:resource="http://purl.org/dc/dcmitype/StillImage" />
        <dc:title></dc:title>
      </cc:Work>
    </rdf:RDF>
  </metadata>
  <defs
     id="defs60" />
  <sodipodi:namedview
     pagecolor="#ffffff"
     bordercolor="#666666"
     borderopacity="1"
     objecttolerance="10"
     gridtolerance="10"
     guidetolerance="10"
     inkscape:pageopacity="0"
     inkscape:pageshadow="2"
     inkscape:window-width="1280"
     inkscape:window-height="1004"
     id="namedview58"
     showgrid="false"
     fit-margin-top="0"
     fit-margin-left="0"
     fit-margin-right="0"
     fit-margin-bottom="0"
     inkscape:zoom="3.5348466"
     inkscape:cx="70.912173"
     inkscape:cy="18.00631"
     inkscape:window-x="-8"
     inkscape:window-y="-8"
     inkscape:window-maximized="1"
     inkscape:current-layer="svg2" />
  <!-- draw the bicycle -->
  <!-- RIGHT -->
  <!-- LANE -->
  <!-- ONLY -->
  <path
     inkscape:connector-curvature="0"
     d="m 17.437806,-1.0305759e-5 314.173324,0 c 9.59201,0 17.43779,7.845778005759 17.43779,17.437805305759 l 0,139.650625 c 0,9.5885 -7.84578,17.4378 -17.43779,17.4378 l -314.173324,0 C 7.845778,174.52622 0,166.67692 0,157.08842 L 0,17.437795 C 0,7.8457677 7.845778,-1.0305759e-5 17.437806,-1.0305759e-5"
     style="fill:#006330;fill-opacity:1;fill-rule:evenodd;stroke:none"
     id="path3107" />
  <path
     inkscape:connector-curvature="0"
     d="m 331.54057,4.3603227 c 7.68349,0.370417 12.78113,5.468056 13.15156,13.1515553 l 0,139.502452 c -0.37043,7.60942 -5.54214,12.78114 -13.15156,13.15156 l -314.025153,0 C 9.902472,169.79547 4.73075,164.62375 4.360333,157.01433 l 0,-139.502452 C 4.73075,9.8283787 9.828389,4.7307397 17.515417,4.3603227 l 314.025153,0"
     style="fill:#ffffff;fill-opacity:1;fill-rule:evenodd;stroke:none"
     id="path3111" />
  <path
     inkscape:connector-curvature="0"
     d="m 17.437806,8.7171287 314.173324,0 c 4.79777,0 8.72065,3.9228883 8.72065,8.7171383 l 0,139.650623 c 0,4.79778 -3.92288,8.72067 -8.72065,8.72067 l -314.173324,0 c -4.79425,0 -8.717139,-3.92289 -8.717139,-8.72067 l 0,-139.650623 c 0,-4.79425 3.922889,-8.7171383 8.717139,-8.7171383"
     style="fill:#006330;fill-opacity:1;fill-rule:evenodd;stroke:none"
     id="path3115" />
  <path
     d="m 111.40723,23.29743 27.8377,0 0,6.755695 -21.12081,0 0,7.725833 11.41236,0 0,6.755695 -11.41236,0 0,10.830278 21.81931,0 0,6.755695 -28.5362,0 0,-38.823196"
     style="fill:#ffffff;fill-opacity:1;fill-rule:evenodd;stroke:none"
     id="path3335"
     inkscape:connector-curvature="0" />
  <path
     d="m 155.70554,23.29743 6.36764,0 17.8188,25.661056 0,-25.661056 6.7557,0 0,38.823196 -6.0572,0 -18.16805,-26.359557 0,26.359557 -6.71689,0 0,-38.823196"
     style="fill:#ffffff;fill-opacity:1;fill-rule:evenodd;stroke:none"
     id="path3339"
     inkscape:connector-curvature="0" />
  <path
     d="m 206.36796,23.29743 12.4213,0 c 11.84275,0 18.52084,9.433278 18.52084,19.603862 0,10.057695 -6.60047,19.219334 -17.46956,19.219334 l -13.47258,0 0,-38.823196 z m 6.67808,32.067501 7.10495,0 c 6.48405,0 10.63625,-6.522861 10.63625,-12.463639 0,-6.558139 -4.42736,-12.848167 -11.10192,-12.848167 l -6.63928,0 0,25.311806"
     style="fill:#ffffff;fill-opacity:1;fill-rule:evenodd;stroke:none"
     id="path3343"
     inkscape:connector-curvature="0" />
  <path
     d="m 28.599696,98.887128 28.536196,0 0,6.755692 -21.974529,0 0,8.42434 12.110862,0 0,6.63927 -12.110862,0 0,17.00389 -6.561667,0 0,-38.823192"
     style="fill:#ffffff;fill-opacity:1;fill-rule:evenodd;stroke:none"
     id="path3347"
     inkscape:connector-curvature="0" />
  <path
     d="m 67.578114,98.887128 18.672529,0 c 6.949723,0 11.765139,5.591532 11.765139,11.571112 0,3.95817 -2.564694,9.04522 -6.716889,10.83028 l 7.221362,16.4218 -7.221362,0 -6.910917,-15.18002 -10.170583,0 0,15.18002 -6.639279,0 0,-38.823192 z m 6.639279,6.639282 0,10.40341 12.03325,0 c 2.681111,0 5.04825,-2.44475 5.04825,-5.16466 0,-1.82386 -1.513416,-5.23875 -5.04825,-5.23875 l -12.03325,0"
     style="fill:#ffffff;fill-opacity:1;fill-rule:evenodd;stroke:none"
     id="path3351"
     inkscape:connector-curvature="0" />
  <path
     d="m 109.89381,98.887128 27.8377,0 0,6.755692 -21.12081,0 0,7.72584 11.41236,0 0,6.75569 -11.41236,0 0,10.83028 21.81931,0 0,6.75569 -28.5362,0 0,-38.823192"
     style="fill:#ffffff;fill-opacity:1;fill-rule:evenodd;stroke:none"
     id="path3355"
     inkscape:connector-curvature="0" />
  <path
     d="m 150.26923,98.887128 27.8377,0 0,6.755692 -21.12081,0 0,7.72584 11.41236,0 0,6.75569 -11.41236,0 0,10.83028 21.81931,0 0,6.75569 -28.5362,0 0,-38.823192"
     style="fill:#ffffff;fill-opacity:1;fill-rule:evenodd;stroke:none"
     id="path3359"
     inkscape:connector-curvature="0" />
  <path
     d="m 186.99693,98.887128 6.83331,0 4.38502,23.410332 5.74675,-23.410332 6.60048,0 6.1348,23.643172 4.22981,-23.643172 6.71689,0 -6.91092,38.823192 -7.29897,0 -6.01839,-24.34166 -6.13128,24.34166 -7.10494,0 -7.18256,-38.823192"
     style="fill:#ffffff;fill-opacity:1;fill-rule:evenodd;stroke:none"
     id="path3363"
     inkscape:connector-curvature="0" />
  <path
     d="m 251.17074,98.887128 6.48405,0 16.30539,38.823192 -7.29897,0 -3.72886,-9.04522 -16.84867,0 -3.80294,9.04522 -7.14375,0 16.03375,-38.823192 z m -2.44475,23.099892 11.41236,0 -5.66914,-13.78303 -5.74322,13.78303"
     style="fill:#ffffff;fill-opacity:1;fill-rule:evenodd;stroke:none"
     id="path3367"
     inkscape:connector-curvature="0" />
  <path
     d="m 281.25563,98.887128 8.1915,0 11.33475,16.150172 11.14425,-16.150172 8.1915,0 -15.99495,23.410332 0,15.41286 -6.75569,0 0,-15.41286 -16.11136,-23.410332"
     style="fill:#ffffff;fill-opacity:1;fill-rule:evenodd;stroke:none"
     id="path3371"
     inkscape:connector-curvature="0" />
</svg>
