<!DOCTYPE svg PUBLIC "-//W3C//DTD SVG 20010904//EN" "http://www.w3.org/TR/2001/REC-SVG-20010904/DTD/svg10.dtd">
<svg version="1.0" xmlns="http://www.w3.org/2000/svg" width="300px" height="300px" viewBox="0 0 3000 3000" preserveAspectRatio="xMidYMid meet">
<!-- based on @see https://de.wikipedia.org/wiki/Datei:Nederlands_verkeersbord_D1.svg -->
<g id="layer101" fill="#0e518d" stroke="none">
 <path d="M1265 2985 c-304 -48 -581 -185 -799 -395 -231 -223 -374 -480 -443 -800 -26 -121 -26 -459 0 -579 81 -377 277 -688 572 -913 188 -142 439 -247 680 -284 107 -16 328 -18 428 -4 258 38 505 139 702 288 293 223 491 538 572 913 26 120 26 458 0 579 -66 303 -195 546 -406 763 -229 235 -516 382 -846 433 -110 17 -351 16 -460 -1z"/>
 </g>
<g id="layer102" fill="#f6faf4" stroke="none">
 <path d="M1285 2935 c-628 -99 -1110 -573 -1216 -1196 -27 -158 -22 -390 10 -539 113 -512 482 -922 971 -1078 177 -56 248 -67 450 -67 202 0 273 11 450 67 490 156 857 565 971 1081 32 145 37 379 10 535 -107 628 -591 1101 -1226 1198 -110 17 -312 16 -420 -1z m510 -83 c258 -61 476 -177 659 -352 280 -268 427 -612 427 -1000 1 -550 -314 -1036 -817 -1263 -306 -138 -702 -155 -1019 -44 -364 128 -662 404 -813 752 -175 405 -148 872 71 1250 135 233 348 430 595 550 124 60 246 97 422 129 14 2 106 3 205 2 141 -2 199 -7 270 -24z"/>
 <path d="M1762 2508 c-20 -20 -14 -70 28 -225 22 -81 40 -154 40 -160 0 -10 -44 -13 -187 -13 -104 0 -216 -5 -251 -10 -169 -28 -300 -125 -372 -274 -68 -142 -70 -163 -70 -806 l0 -570 140 0 140 0 0 573 c0 630 1 637 60 709 17 20 56 49 88 65 56 27 61 28 255 31 189 3 199 3 193 -15 -23 -72 -77 -331 -74 -356 4 -39 29 -55 65 -41 33 13 722 489 741 512 23 30 14 59 -30 95 -122 97 -709 497 -730 497 -13 0 -29 -5 -36 -12z"/>
 </g>

</svg>
