<?xml version="1.0" encoding="UTF-8" standalone="no"?>
<!-- @see https://en.wikipedia.org/wiki/Road_signs_in_Australia#/media/File:Victoria_W1-V50.svg -->
<svg
   xmlns:dc="http://purl.org/dc/elements/1.1/"
   xmlns:cc="http://creativecommons.org/ns#"
   xmlns:rdf="http://www.w3.org/1999/02/22-rdf-syntax-ns#"
   xmlns:svg="http://www.w3.org/2000/svg"
   xmlns="http://www.w3.org/2000/svg"
   xmlns:sodipodi="http://sodipodi.sourceforge.net/DTD/sodipodi-0.dtd"
   xmlns:inkscape="http://www.inkscape.org/namespaces/inkscape"
   width="240.17648"
   height="240.17625"
   viewBox="0 0 192.14119 192.141"
   version="1.1"
   id="svg2"
   inkscape:version="0.48.2 r9819"
   sodipodi:docname="AJAX1.svg">
  <metadata
     id="metadata27">
    <rdf:RDF>
      <cc:Work
         rdf:about="">
        <dc:format>image/svg+xml</dc:format>
        <dc:type
           rdf:resource="http://purl.org/dc/dcmitype/StillImage" />
        <dc:title></dc:title>
      </cc:Work>
    </rdf:RDF>
  </metadata>
  <defs
     id="defs25" />
  <sodipodi:namedview
     pagecolor="#ffffff"
     bordercolor="#666666"
     borderopacity="1"
     objecttolerance="10"
     gridtolerance="10"
     guidetolerance="10"
     inkscape:pageopacity="0"
     inkscape:pageshadow="2"
     inkscape:window-width="1280"
     inkscape:window-height="1004"
     id="namedview23"
     showgrid="false"
     inkscape:zoom="2.1858177"
     inkscape:cx="100.98269"
     inkscape:cy="85.828775"
     inkscape:window-x="-8"
     inkscape:window-y="-8"
     inkscape:window-maximized="1"
     inkscape:current-layer="svg2"
     fit-margin-top="0"
     fit-margin-left="0"
     fit-margin-right="0"
     fit-margin-bottom="0" />
  <path
     d="m 102.73499,2.761 86.646,86.644 -8e-4,0 c 0.79,0.791 1.486,1.768 1.986,2.922 0.5,1.157 0.775,2.428 0.775,3.743 0,1.316 -0.275,2.588 -0.775,3.744 -0.5,1.154 -1.196,2.132 -1.986,2.922 l 8e-4,0 -86.646,86.644 c -0.789,0.79 -1.767,1.487 -2.921,1.985 -1.156,0.501 -2.428,0.776 -3.743,0.776 -1.315,0 -2.588,-0.275 -3.744,-0.776 -1.154,-0.498 -2.132,-1.195 -2.921,-1.985 L 2.761,102.736 C 1.971,101.946 1.275,100.968 0.775,99.814 0.275,98.658 0,97.386 0,96.07 0,94.755 0.275,93.484 0.775,92.327 1.275,91.173 1.971,90.195 2.761,89.405 L 89.40599,2.761 c 0.789,-0.789 1.767,-1.486 2.921,-1.986 1.156,-0.5 2.429,-0.775 3.744,-0.775 1.315,0 2.587,0.275 3.743,0.775 1.154,0.5 2.132,1.197 2.921,1.986"
     style="fill:#fee011;fill-opacity:1;fill-rule:evenodd;stroke:none"
     id="path3571"
     inkscape:connector-curvature="0" />
  <path
     d="m 188.04699,90.739 0,0 -86.644,-86.645 -8e-4,0 c -0.631,-0.632 -1.413,-1.188 -2.336,-1.589 -0.926,-0.4 -1.943,-0.619 -2.996,-0.619 -1.052,0 -2.069,0.219 -2.995,0.619 -0.923,0.401 -1.705,0.957 -2.336,1.589 L 4.094,90.739 l 0,0 C 3.462,91.37 2.905,92.153 2.506,93.076 2.105,94 1.885,95.019 1.885,96.071 c 0,1.052 0.22,2.07 0.621,2.995 0.399,0.923 0.957,1.705 1.588,2.337 l 0,0 86.64499,86.644 c 0.631,0.632 1.413,1.189 2.336,1.589 0.926,0.4 1.943,0.62 2.995,0.62 1.052,0 2.07,-0.22 2.996,-0.62 0.922,-0.4 1.705,-0.957 2.336,-1.589 l 8e-4,0 86.644,-86.644 c 0.631,-0.632 1.189,-1.414 1.588,-2.337 0.401,-0.925 0.621,-1.943 0.621,-2.995 0,-1.052 -0.22,-2.071 -0.621,-2.995 -0.399,-0.923 -0.957,-1.706 -1.588,-2.337 m -94.642,94.642 c 0.645,0.646 1.581,1.104 2.665,1.104 1.084,0 2.021,-0.458 2.666,-1.104 l 86.645,-86.644 c 0.316,-0.316 0.595,-0.707 0.794,-1.169 0.2,-0.463 0.31,-0.972 0.31,-1.497 0,-0.526 -0.11,-1.036 -0.31,-1.498 -0.099,-0.229 -0.219,-0.442 -0.353,-0.638 -0.067,-0.098 -0.139,-0.192 -0.212,-0.28 -0.074,-0.088 -0.15,-0.172 -0.229,-0.25 L 98.73599,6.76 c -0.645,-0.645 -1.582,-1.104 -2.666,-1.104 -1.084,0 -2.02,0.459 -2.665,1.104 L 6.76,93.405 l 0,0 c -0.316,0.316 -0.595,0.707 -0.794,1.168 -0.2,0.462 -0.311,0.971 -0.311,1.498 0,0.525 0.111,1.034 0.311,1.497 0.199,0.462 0.478,0.853 0.794,1.169 l 86.64499,86.644"
     style="fill:#000000;fill-opacity:1;fill-rule:evenodd;stroke:none"
     id="path3583"
     inkscape:connector-curvature="0" />
  <path
     d="m 123.40599,140.058 10.681,0 0.494,-61.285 8e-4,0 c 0.02,-2.516 -0.183,-5.12 -0.654,-7.769 -0.472,-2.651 -1.207,-5.323 -2.236,-7.963 -1.0278,-2.641 -2.3358,-5.217 -3.9268,-7.673 -1.591,-2.457 -3.442,-4.755 -5.529,-6.853 -2.086,-2.097 -4.376,-3.96 -6.825,-5.564 -2.447,-1.603 -5.017,-2.924 -7.652,-3.966 -2.635,-1.042 -5.303,-1.791 -7.951,-2.276 -2.648,-0.485 -5.249,-0.701 -7.766,-0.694 -2.516,0.008 -5.117,0.239 -7.761,0.74 -2.646,0.501 -5.30899,1.265 -7.93799,2.322 -2.63,1.058 -5.19,2.394 -7.629,4.012 -2.439,1.619 -4.717,3.494 -6.792,5.604 -2.074,2.11 -3.911,4.42 -5.488,6.886 -1.576,2.465 -2.87,5.049 -3.882,7.696 -1.013,2.646 -1.733,5.322 -2.188,7.976 -0.456,2.652 -0.643,5.257 -0.608,7.772 0.035,2.516 0.295,5.114 0.825,7.753 0.53,2.64 1.324,5.294 2.41,7.912 1.086,2.618 2.45,5.164 4.096,7.584 1.645,2.421 3.545,4.678 5.678,6.73 2.132,2.051 4.463,3.862 6.946,5.412 2.483,1.549 5.079,2.813 7.737,3.797 2.65799,0.983 5.34199,1.673 7.99999,2.1 1.327,0.213 2.643,0.359 3.943,0.445 0.65,0.042 1.294,0.069 1.934,0.082 0.32,0.006 0.639,0.009 0.955,0.008 0.161,0 0.316,-8e-4 0.475,-0.004 l 0.118,-0.002 0.118,-0.002 0.118,-0.002 0.118,-0.003 -0.18,-0.005 -2.293,5.55 0,0 c -0.144,0.348 -0.189,0.755 -0.09,1.163 0.099,0.408 0.324,0.749 0.612,0.993 0.287,0.245 0.661,0.412 1.079,0.444 0.418,0.031 0.813,-0.079 1.133,-0.277 l 21.63,-13.3854 -21.63,-13.386 c -0.321,-0.198 -0.714,-0.308 -1.133,-0.277 -0.418,0.032 -0.792,0.199 -1.079,0.444 -0.288,0.244 -0.514,0.586 -0.612,0.993 -0.099,0.408 -0.054,0.815 0.09,1.164 l 0,0 2.302,5.571 -0.087,0.002 -0.088,0.003 -0.087,0.002 -0.088,8e-4 c -0.119,0.002 -0.231,0.003 -0.351,0.004 -0.237,8e-4 -0.469,0 -0.708,-0.004 -0.474,-0.008 -0.951,-0.026 -1.432,-0.056 -0.963,-0.06 -1.937,-0.165 -2.921,-0.32 -1.969,-0.309 -3.958,-0.813 -5.928,-1.535 -1.97099,-0.721 -3.89799,-1.65 -5.73999,-2.791 -1.842,-1.141 -3.572,-2.476 -5.157,-3.989 -1.585,-1.513 -2.997,-3.179 -4.222,-4.967 -1.225,-1.788 -2.242,-3.669 -3.054,-5.605 -0.811,-1.935 -1.407,-3.898 -1.807,-5.851 -0.399,-1.952 -0.599,-3.876 -0.633,-5.739 -0.033,-1.862 0.098,-3.791 0.428,-5.757 0.33,-1.966 0.854,-3.95 1.597,-5.913 0.742,-1.963 1.691,-3.879 2.85,-5.709 1.16,-1.831 2.514,-3.547 4.043,-5.115 1.53,-1.569 3.21,-2.965 5.011,-4.171 1.8,-1.206 3.692,-2.204 5.63599,-2.995 1.943,-0.791 3.913,-1.367 5.87,-1.746 1.957,-0.38 3.881,-0.559 5.744,-0.574 1.864,-0.013 3.791,0.138 5.754,0.488 1.962,0.35 3.94,0.896 5.894,1.658 1.956,0.763 3.863,1.732 5.681,2.91 1.818,1.179 3.52,2.55 5.072,4.096 1.553,1.545 2.932,3.241 4.118,5.054 1.188,1.813 2.166,3.715 2.937,5.667 0.771,1.951 1.326,3.926 1.685,5.888 0.358,1.96 0.519,3.887 0.513,5.75 l 0,0 -0.18,61.547"
     style="fill:#000000;fill-opacity:1;fill-rule:evenodd;stroke:none"
     id="path3589"
     inkscape:connector-curvature="0" />
</svg>
