<?xml version="1.0" encoding="UTF-8" standalone="no"?>
<!-- Generator: Adobe Illustrator 12.0.1, SVG Export Plug-In  -->

<svg
   xmlns:dc="http://purl.org/dc/elements/1.1/"
   xmlns:cc="http://creativecommons.org/ns#"
   xmlns:rdf="http://www.w3.org/1999/02/22-rdf-syntax-ns#"
   xmlns:svg="http://www.w3.org/2000/svg"
   xmlns="http://www.w3.org/2000/svg"
   xmlns:sodipodi="http://sodipodi.sourceforge.net/DTD/sodipodi-0.dtd"
   xmlns:inkscape="http://www.inkscape.org/namespaces/inkscape"
   version="1.1"
   width="122.00375"
   height="122.01125"
   viewBox="-1 0 122.00374 122.01125"
   enable-background="new -1 0 292 291"
   xml:space="preserve"
   id="svg2"
   inkscape:version="0.48.2 r9819"
   sodipodi:docname="Australia W4-5.svg"><metadata
   id="metadata24"><rdf:RDF><cc:Work
       rdf:about=""><dc:format>image/svg+xml</dc:format><dc:type
         rdf:resource="http://purl.org/dc/dcmitype/StillImage" /><dc:title></dc:title></cc:Work></rdf:RDF></metadata><sodipodi:namedview
   pagecolor="#ffffff"
   bordercolor="#666666"
   borderopacity="1"
   objecttolerance="10"
   gridtolerance="10"
   guidetolerance="10"
   inkscape:pageopacity="0"
   inkscape:pageshadow="2"
   inkscape:window-width="1280"
   inkscape:window-height="1004"
   id="namedview22"
   showgrid="false"
   fit-margin-top="0"
   fit-margin-left="0"
   fit-margin-right="0"
   fit-margin-bottom="0"
   inkscape:zoom="3.2439862"
   inkscape:cx="79.913758"
   inkscape:cy="43.728182"
   inkscape:window-x="-8"
   inkscape:window-y="-8"
   inkscape:window-maximized="1"
   inkscape:current-layer="svg2" />
<defs
   id="defs4">
</defs>





<polygon
   points="200.801,160.661 200.801,206.885 168.102,239.552 121.914,239.552 89.25,206.885 89.25,160.661 121.914,127.982 168.102,127.982 "
   id="polygon16"
   style="fill:none;stroke:none"
   transform="matrix(1.1719259,0,0,1.1719259,-150.67737,235.76918)" />


<path
   inkscape:connector-curvature="0"
   d="M 119.20656,65.203752 64.182807,120.30125 c -2.4275,2.28 -6.03625,2.28 -8.50625,0 L 0.76905724,65.203752 c -2.35874984,-2.2425 -2.35874984,-6.11625 0,-8.5125 L 55.676557,1.71 c 2.47,-2.28 6.07875,-2.28 8.50625,0 l 55.023753,54.981252 c 2.39625,2.39625 2.39625,6.27 0,8.5125"
   style="fill:#fee011;fill-opacity:1;fill-rule:evenodd;stroke:none"
   id="path3068" /><path
   inkscape:connector-curvature="0"
   d="M 118.52031,64.137502 63.312807,119.35125 c -1.9375,2.01 -4.7875,2.01 -6.65,0 L 1.5290574,64.137502 c -1.90000016,-1.71 -1.90000016,-4.75 0,-6.49625 L 56.662807,2.47 c 1.8625,-1.82625 4.7125,-1.82625 6.65,0 l 55.207503,55.171252 c 1.7525,1.74625 1.7525,4.78625 0,6.49625"
   style="fill:#000000;fill-opacity:1;fill-rule:evenodd;stroke:none"
   id="path3072" /><path
   inkscape:connector-curvature="0"
   d="M 116.81031,62.617502 61.602807,117.75125 c -0.87625,0.84 -2.36,0.84 -3.19375,0 L 3.0490573,62.617502 c -0.95,-1.06125 -0.95,-2.39125 0,-3.34 L 58.409057,4.1375 c 0.83375,-0.95 2.3175,-0.95 3.19375,0 l 55.207503,55.140002 c 0.9125,0.94875 0.9125,2.27875 0,3.34"
   style="fill:#fee011;fill-opacity:1;fill-rule:evenodd;stroke:none"
   id="path3076" /><path
   d="m 52.862803,27.27875 0,21.812499 c 0,2.08875 -0.9125,4.17875 -2.01625,5.6625 l -7.028749,9.68875 c -1.14125,1.48375 -1.9,3.4575 -1.9,5.51 l 0,24.662499 11.96875,0 0,-21.848749 c 0.11625,-2.09 0.64875,-3.99 1.636249,-5.47375 l 4.37,-6.34875 4.37,6.34875 c 0.98625,1.48375 1.51875,3.38375 1.63,5.47375 l 0,21.848749 11.97,0 0,-24.662499 c 0,-2.0525 -0.76,-4.02625 -1.9,-5.51 l -7.03,-9.68875 c -1.0975,-1.48375 -2.01125,-3.57375 -2.01125,-5.6625 l 0,-21.812499 -14.05875,0"
   style="fill:#000000;fill-opacity:1;fill-rule:evenodd;stroke:none"
   id="path3404"
   inkscape:connector-curvature="0" /></svg>