<?xml version="1.0" encoding="UTF-8" standalone="no"?>
<!-- @see https://en.wikipedia.org/wiki/Road_signs_in_Australia#/media/File:Australia_R6-19.svg -->
<svg
   xmlns:dc="http://purl.org/dc/elements/1.1/"
   xmlns:cc="http://creativecommons.org/ns#"
   xmlns:rdf="http://www.w3.org/1999/02/22-rdf-syntax-ns#"
   xmlns:svg="http://www.w3.org/2000/svg"
   xmlns="http://www.w3.org/2000/svg"
   xmlns:sodipodi="http://sodipodi.sourceforge.net/DTD/sodipodi-0.dtd"
   xmlns:inkscape="http://www.inkscape.org/namespaces/inkscape"
   width="123.67875"
   height="61.84"
   viewBox="0 0 349.04893 174.52621"
   version="1.1"
   id="svg2"
   inkscape:version="0.48.2 r9819"
   sodipodi:docname="Australia R6-18.svg">
  <metadata
     id="metadata62">
    <rdf:RDF>
      <cc:Work
         rdf:about="">
        <dc:format>image/svg+xml</dc:format>
        <dc:type
           rdf:resource="http://purl.org/dc/dcmitype/StillImage" />
        <dc:title></dc:title>
      </cc:Work>
    </rdf:RDF>
  </metadata>
  <defs
     id="defs60" />
  <sodipodi:namedview
     pagecolor="#ffffff"
     bordercolor="#666666"
     borderopacity="1"
     objecttolerance="10"
     gridtolerance="10"
     guidetolerance="10"
     inkscape:pageopacity="0"
     inkscape:pageshadow="2"
     inkscape:window-width="1280"
     inkscape:window-height="1004"
     id="namedview58"
     showgrid="false"
     fit-margin-top="0"
     fit-margin-left="0"
     fit-margin-right="0"
     fit-margin-bottom="0"
     inkscape:zoom="3.5348466"
     inkscape:cx="70.912173"
     inkscape:cy="18.00631"
     inkscape:window-x="-8"
     inkscape:window-y="-8"
     inkscape:window-maximized="1"
     inkscape:current-layer="svg2" />
  <!-- draw the bicycle -->
  <!-- RIGHT -->
  <!-- LANE -->
  <!-- ONLY -->
  <path
     inkscape:connector-curvature="0"
     d="m 17.437806,-1.0305759e-5 314.173324,0 c 9.59201,0 17.43779,7.845778005759 17.43779,17.437805305759 l 0,139.650625 c 0,9.5885 -7.84578,17.4378 -17.43779,17.4378 l -314.173324,0 C 7.845778,174.52622 0,166.67692 0,157.08842 L 0,17.437795 C 0,7.8457677 7.845778,-1.0305759e-5 17.437806,-1.0305759e-5"
     style="fill:#006330;fill-opacity:1;fill-rule:evenodd;stroke:none"
     id="path3107" />
  <path
     inkscape:connector-curvature="0"
     d="m 331.54057,4.3603227 c 7.68349,0.370417 12.78113,5.468056 13.15156,13.1515553 l 0,139.502452 c -0.37043,7.60942 -5.54214,12.78114 -13.15156,13.15156 l -314.025153,0 C 9.902472,169.79547 4.73075,164.62375 4.360333,157.01433 l 0,-139.502452 C 4.73075,9.8283787 9.828389,4.7307397 17.515417,4.3603227 l 314.025153,0"
     style="fill:#ffffff;fill-opacity:1;fill-rule:evenodd;stroke:none"
     id="path3111" />
  <path
     inkscape:connector-curvature="0"
     d="m 17.437806,8.7171287 314.173324,0 c 4.79777,0 8.72065,3.9228883 8.72065,8.7171383 l 0,139.650623 c 0,4.79778 -3.92288,8.72067 -8.72065,8.72067 l -314.173324,0 c -4.79425,0 -8.717139,-3.92289 -8.717139,-8.72067 l 0,-139.650623 c 0,-4.79425 3.922889,-8.7171383 8.717139,-8.7171383"
     style="fill:#006330;fill-opacity:1;fill-rule:evenodd;stroke:none"
     id="path3115" />
  <path
     inkscape:connector-curvature="0"
     d="m 69.603059,62.483991 5.580944,-4.074583 c 2.973917,3.178528 5.947834,5.094111 10.551584,5.094111 2.568223,0 9.168695,-0.938389 9.168695,-5.461 0,-4.480278 -6.194778,-4.480278 -9.168695,-5.499806 -6.967361,-2.282472 -14.379223,-3.665361 -14.379223,-12.710584 0,-7.782278 7.616473,-11.571112 14.298084,-11.571112 4.847167,0 11.041945,2.568223 14.340418,6.357056 l -5.090584,4.808362 c -2.973917,-3.01625 -5.256389,-3.954639 -9.249834,-3.954639 -2.44475,0 -7.33425,1.305277 -7.415389,4.360333 0,4.155723 4.60375,4.399139 9.49325,5.866695 5.623279,1.672167 14.340421,3.178528 14.340421,11.938 0,8.921751 -9.288643,12.961056 -16.742837,12.961056 -4.931834,0 -13.363223,-3.672416 -15.726834,-8.113889"
     style="fill:#ffffff;fill-opacity:1;fill-rule:evenodd;stroke:none"
     id="path3119" />
  <path
     inkscape:connector-curvature="0"
     d="m 111.28023,29.075934 29.94377,0 0,6.600473 -11.48644,0 0,34.141835 -7.09083,0 0,-34.141835 -11.3665,0 0,-6.600473"
     style="fill:#ffffff;fill-opacity:1;fill-rule:evenodd;stroke:none"
     id="path3123" />
  <path
     inkscape:connector-curvature="0"
     d="m 167.54475,29.075934 6.80508,0 17.10972,40.742308 -7.6588,0 -3.91231,-9.493251 -17.68122,0 -3.99345,9.493251 -7.49652,0 16.8275,-40.742308 z m -2.56822,24.239362 11.98033,0 -5.94783,-14.460361 -6.0325,14.460361"
     style="fill:#ffffff;fill-opacity:1;fill-rule:evenodd;stroke:none"
     id="path3127" />
  <path
     inkscape:connector-curvature="0"
     d="m 207.02058,29.075934 19.59681,0 c 7.29192,0 12.34369,5.866695 12.34369,12.139084 0,4.155722 -2.68816,9.49325 -7.0485,11.370028 l 7.57768,17.233196 -7.57768,0 -7.24958,-15.931446 -10.67506,0 0,15.931446 -6.96736,0 0,-40.742308 z m 6.96736,6.967362 0,10.918472 12.62945,0 c 2.81164,0 5.29519,-2.568222 5.29519,-5.418667 0,-1.915583 -1.5875,-5.499805 -5.29519,-5.499805 l -12.62945,0"
     style="fill:#ffffff;fill-opacity:1;fill-rule:evenodd;stroke:none"
     id="path3131" />
  <path
     inkscape:connector-curvature="0"
     d="m 249.67847,29.075934 29.94378,0 0,6.600473 -11.48644,0 0,34.141835 -7.09083,0 0,-34.141835 -11.36651,0 0,-6.600473"
     style="fill:#ffffff;fill-opacity:1;fill-rule:evenodd;stroke:none"
     id="path3135" />
  <path
     inkscape:connector-curvature="0"
     d="m 31.626529,98.901244 29.943779,0 0,7.087306 -23.057556,0 0,8.84061 12.710584,0 0,6.96737 -12.710584,0 0,17.84702 -6.886223,0 0,-40.742306"
     style="fill:#ffffff;fill-opacity:1;fill-rule:evenodd;stroke:none"
     id="path3139" />
  <path
     inkscape:connector-curvature="0"
     d="m 68.862225,98.901244 19.596807,0 c 7.291917,0 12.343698,5.866696 12.343698,12.139086 0,4.15572 -2.68817,9.49325 -7.048504,11.37003 l 7.577664,17.23319 -7.577664,0 -7.249583,-15.93144 -10.675056,0 0,15.93144 -6.967362,0 0,-40.742306 z m 6.967362,6.967366 0,10.91847 12.629445,0 c 2.811639,0 5.295194,-2.56822 5.295194,-5.41867 0,-1.91558 -1.5875,-5.4998 -5.295194,-5.4998 l -12.629445,0"
     style="fill:#ffffff;fill-opacity:1;fill-rule:evenodd;stroke:none"
     id="path3143" />
  <path
     inkscape:connector-curvature="0"
     d="m 109.27645,98.901244 29.21,0 0,7.087306 -22.1615,0 0,8.11036 11.97681,0 0,7.08731 -11.97681,0 0,11.3665 22.89527,0 0,7.09083 -29.94377,0 0,-40.742306"
     style="fill:#ffffff;fill-opacity:1;fill-rule:evenodd;stroke:none"
     id="path3147" />
  <path
     inkscape:connector-curvature="0"
     d="m 147.45052,98.901244 29.21001,0 0,7.087306 -22.16151,0 0,8.11036 11.97681,0 0,7.08731 -11.97681,0 0,11.3665 22.89528,0 0,7.09083 -29.94378,0 0,-40.742306"
     style="fill:#ffffff;fill-opacity:1;fill-rule:evenodd;stroke:none"
     id="path3151" />
  <path
     inkscape:connector-curvature="0"
     d="m 183.09872,98.901244 7.17197,0 4.60023,24.567446 6.0325,-24.567446 6.92502,0 6.4382,24.810866 4.43794,-24.810866 7.0485,0 -7.24958,40.742306 -7.65881,0 -6.31472,-25.54464 -6.43819,25.54464 -7.4542,0 -7.53886,-40.742306"
     style="fill:#ffffff;fill-opacity:1;fill-rule:evenodd;stroke:none"
     id="path3155" />
  <path
     inkscape:connector-curvature="0"
     d="m 247.83697,98.901244 6.80509,0 17.10972,40.742306 -7.6588,0 -3.91231,-9.49325 -17.68122,0 -3.99344,9.49325 -7.49654,0 16.82751,-40.742306 z m -2.56822,24.239366 11.98033,0 -5.94783,-14.46036 -6.0325,14.46036"
     style="fill:#ffffff;fill-opacity:1;fill-rule:evenodd;stroke:none"
     id="path3159" />
  <path
     inkscape:connector-curvature="0"
     d="m 276.84589,98.901244 8.5972,0 11.89566,16.947446 11.69106,-16.947446 8.5972,0 -16.78516,24.567446 0,16.17486 -7.08731,0 0,-16.17486 -16.90864,-24.567446"
     style="fill:#ffffff;fill-opacity:1;fill-rule:evenodd;stroke:none"
     id="path3163" />
</svg>
