<?xml version="1.0" encoding="UTF-8" standalone="no"?>
<!-- @see https://en.wikipedia.org/wiki/Road_signs_in_Australia#/media/File:Australia_R3-1_(fluoro_with_target_board).svg -->
<svg
   xmlns:dc="http://purl.org/dc/elements/1.1/"
   xmlns:cc="http://creativecommons.org/ns#"
   xmlns:rdf="http://www.w3.org/1999/02/22-rdf-syntax-ns#"
   xmlns:svg="http://www.w3.org/2000/svg"
   xmlns="http://www.w3.org/2000/svg"
   xmlns:sodipodi="http://sodipodi.sourceforge.net/DTD/sodipodi-0.dtd"
   xmlns:inkscape="http://www.inkscape.org/namespaces/inkscape"
   version="1.1"
   x="0px"
   y="0px"
   width="750.40002"
   height="750.40015"
   viewBox="0 -0.321 750.40002 750.40027"
   enable-background="new 0 -0.321 144 120"
   xml:space="preserve"
   id="svg2"
   inkscape:version="0.48.4 r9939"
   sodipodi:docname="Ajax.svg"><metadata
   id="metadata44"><rdf:RDF><cc:Work
       rdf:about=""><dc:format>image/svg+xml</dc:format><dc:type
         rdf:resource="http://purl.org/dc/dcmitype/StillImage" /><dc:title /></cc:Work></rdf:RDF></metadata><sodipodi:namedview
   pagecolor="#ffffff"
   bordercolor="#666666"
   borderopacity="1"
   objecttolerance="10"
   gridtolerance="10"
   guidetolerance="10"
   inkscape:pageopacity="0"
   inkscape:pageshadow="2"
   inkscape:window-width="1280"
   inkscape:window-height="1001"
   id="namedview42"
   showgrid="false"
   fit-margin-top="0.2"
   fit-margin-left="0.2"
   fit-margin-right="0.2"
   fit-margin-bottom="0.2"
   inkscape:zoom="0.4738086"
   inkscape:cx="296.48838"
   inkscape:cy="205.85184"
   inkscape:window-x="-8"
   inkscape:window-y="-8"
   inkscape:window-maximized="1"
   inkscape:current-layer="svg2"
   showguides="true"
   inkscape:guide-bbox="true" />
<defs
   id="defs4">
</defs>


















<path
   sodipodi:nodetypes="sssss"
   inkscape:connector-curvature="0"
   style="fill:#e96e13;fill-opacity:1;stroke:none"
   d="m 375.20005,749.87926 c 207.10688,0 375.00002,-167.89326 375.00002,-375.00009 0,-207.1069 -167.89314,-375.00016997 -375.00002,-375.00016997 -207.10693,0 -375.00011393,167.89326997 -375.00011393,375.00016997 0,207.10682 167.89318393,375.00009 375.00011393,375.00009 z"
   id="path3811" /><path
   id="path3813"
   d="m 375.19998,662.87924 c 159.05806,0 288.00008,-128.942 288.00008,-288.00003 0,-159.05808 -128.94202,-288.000095 -288.00008,-288.000095 -159.05807,0 -288.000039,128.942015 -288.000039,288.000095 0,159.05803 128.941969,288.00003 288.000039,288.00003 z"
   style="fill:#000000;fill-opacity:1;stroke:none"
   inkscape:connector-curvature="0"
   sodipodi:nodetypes="sssss" /><path
   sodipodi:nodetypes="sssss"
   inkscape:connector-curvature="0"
   style="fill:#a2ff31;fill-opacity:1;stroke:none"
   d="m 375.19998,650.87922 c 152.43063,0 276.00007,-123.56941 276.00007,-276.00002 0,-152.43066 -123.56944,-276.000085 -276.00007,-276.000085 -152.43064,0 -276.000033,123.569425 -276.000033,276.000085 0,152.43061 123.569393,276.00002 276.000033,276.00002 z"
   id="path3038" /><path
   id="path3832"
   style="fill:#000000;fill-opacity:1;fill-rule:evenodd;stroke:none"
   d="m 276.13237,199.03649 48.00755,0 30.7382,60.20553 -91.95314,199.15078 -85.86023,-40.38836 99.06762,-218.96795 z"
   inkscape:connector-curvature="0" /><path
   id="path3834"
   style="fill:#000000;fill-opacity:1;fill-rule:evenodd;stroke:none"
   d="m 189.26274,491.92207 4.31734,-7.87458 c 10.92103,4.82812 14.73366,7.61919 22.60824,18.03552 7.36987,9.40084 23.11902,16.25385 34.54475,19.81109 29.97811,9.65623 33.53535,-14.98298 24.13451,-20.06649 -18.29091,-10.16093 -36.07103,-29.97203 -37.3419,-46.73666 -25.15,0 -44.96109,-12.95808 -55.88212,-26.16548 -16.76464,5.84361 -19.81718,18.54022 -20.57728,36.83112 l -4.31733,10.92711 32.51379,15.23837 z"
   inkscape:connector-curvature="0" /><path
   id="path3836"
   style="fill:#000000;fill-opacity:1;fill-rule:evenodd;stroke:none"
   d="m 528.88611,511.98855 -3.30185,-8.38536 c 10.92103,-5.07742 15.49376,-6.09291 28.45184,-5.33282 11.93652,0.76618 27.43028,-6.60369 37.84661,-12.952 26.67018,-16.51532 10.41633,-35.05554 0.25539,-31.4983 -19.56178,7.1084 -45.97657,7.61919 -59.43936,-2.28636 -16.77071,19.051 -39.37287,25.3993 -56.64829,25.14391 -6.3483,16.25993 1.01549,27.18097 14.22288,39.62827 l 5.58822,10.41632 33.02456,-14.73366 z"
   inkscape:connector-curvature="0" /><path
   id="path3838"
   style="fill:#000000;fill-opacity:1;fill-rule:evenodd;stroke:none"
   d="m 342.94273,199.03649 101.35403,0 109.98866,228.6181 -85.85415,41.14846 -125.48854,-269.76656 z"
   inkscape:connector-curvature="0" /></svg>
