<?xml version="1.0" encoding="UTF-8" standalone="no"?>
<!-- @see https://en.wikipedia.org/wiki/Road_signs_in_Australia#/media/File:Australia_road_sign_W3-3_(old).svg -->
<svg
   xmlns:dc="http://purl.org/dc/elements/1.1/"
   xmlns:cc="http://creativecommons.org/ns#"
   xmlns:rdf="http://www.w3.org/1999/02/22-rdf-syntax-ns#"
   xmlns:svg="http://www.w3.org/2000/svg"
   xmlns="http://www.w3.org/2000/svg"
   xmlns:sodipodi="http://sodipodi.sourceforge.net/DTD/sodipodi-0.dtd"
   xmlns:inkscape="http://www.inkscape.org/namespaces/inkscape"
   width="815.86383"
   height="815.86383"
   viewBox="0 0 815.86383 815.86383"
   id="svg2"
   version="1.1"
   inkscape:version="0.91 r13725"
   sodipodi:docname="Drawing-1.svg">
  <defs
     id="defs4" />
  <sodipodi:namedview
     id="base"
     pagecolor="#ffffff"
     bordercolor="#666666"
     borderopacity="1.0"
     inkscape:pageopacity="0.0"
     inkscape:pageshadow="2"
     inkscape:zoom="0.78770669"
     inkscape:cx="371.98042"
     inkscape:cy="356.95377"
     inkscape:document-units="px"
     inkscape:current-layer="layer1"
     showgrid="false"
     fit-margin-top="0.2"
     fit-margin-bottom="0.2"
     fit-margin-left="0.2"
     fit-margin-right="0.2"
     units="px"
     inkscape:window-width="1920"
     inkscape:window-height="1057"
     inkscape:window-x="-8"
     inkscape:window-y="-8"
     inkscape:window-maximized="1" />
  <metadata
     id="metadata7">
    <rdf:RDF>
      <cc:Work
         rdf:about="">
        <dc:format>image/svg+xml</dc:format>
        <dc:type
           rdf:resource="http://purl.org/dc/dcmitype/StillImage" />
        <dc:title></dc:title>
      </cc:Work>
    </rdf:RDF>
  </metadata>
  <g
     inkscape:label="Layer 1"
     inkscape:groupmode="layer"
     id="layer1"
     transform="translate(2214.3325,-912.31521)">
    <rect
       ry="40"
       rx="40"
       y="43.762398"
       x="-2510.8738"
       height="600"
       width="600"
       id="rect4770"
       style="fill:#fee011;fill-opacity:1;stroke:none;stroke-width:8;stroke-linejoin:miter;stroke-miterlimit:4;stroke-dasharray:none;stroke-dashoffset:0;stroke-opacity:1"
       transform="matrix(0.70710678,-0.70710678,-0.70710678,-0.70710678,0,0)" />
    <rect
       ry="32"
       rx="32"
       y="51.762398"
       x="-2502.8738"
       height="584"
       width="584"
       id="rect4778"
       style="fill:#000000;fill-opacity:1;stroke:none;stroke-width:8;stroke-linejoin:miter;stroke-miterlimit:4;stroke-dasharray:none;stroke-dashoffset:0;stroke-opacity:1"
       transform="matrix(0.70710678,-0.70710678,-0.70710678,-0.70710678,0,0)" />
    <rect
       style="fill:#fee011;fill-opacity:1;stroke:none;stroke-width:8;stroke-linejoin:miter;stroke-miterlimit:4;stroke-dasharray:none;stroke-dashoffset:0;stroke-opacity:1"
       id="rect4789"
       width="552"
       height="552"
       x="-2486.8735"
       y="67.762459"
       rx="16"
       ry="16"
       transform="matrix(0.70710678,-0.70710678,-0.70710678,-0.70710678,0,0)" />
    <path
       style="fill:#000000;fill-opacity:1;fill-rule:evenodd;stroke:none;stroke-width:0.60940558;stroke-linecap:butt;stroke-linejoin:miter;stroke-miterlimit:22.9260006;stroke-dasharray:none;stroke-opacity:1"
       d="m -1638.4004,1383.247 -15.8,67.0001 c -1.7854,7.1443 -8.1644,13.7802 -14.8,14.7999 l -81.4,10.2 -112,0 -81.4,-10.2 c -6.6356,-1.0197 -13.0147,-7.6556 -14.8,-14.7999 l -15.8,-67.0001 112,-8 112,0 z"
       id="path4171-1"
       inkscape:connector-curvature="0"
       sodipodi:nodetypes="ccccccccccc" />
    <path
       sodipodi:nodetypes="ccccccccccccc"
       inkscape:connector-curvature="0"
       id="path4280"
       d="m -1638.4004,1127.247 -15.8,67.0001 c -1.7854,7.1443 -8.1644,13.7802 -14.8,14.7999 l -75,6.2 -6.4,4 -112,0 -6.4,-4 -75,-6.2 c -6.6356,-1.0197 -13.0147,-7.6556 -14.8,-14.7999 l -15.8,-67.0001 112,-8 112,0 z"
       style="fill:#000000;fill-opacity:1;fill-rule:evenodd;stroke:none;stroke-width:0.60940558;stroke-linecap:butt;stroke-linejoin:miter;stroke-miterlimit:22.9260006;stroke-dasharray:none;stroke-opacity:1" />
    <path
       style="fill:#000000;fill-opacity:1;fill-rule:evenodd;stroke:none;stroke-width:0.60940558;stroke-linecap:butt;stroke-linejoin:miter;stroke-miterlimit:22.9260006;stroke-dasharray:none;stroke-opacity:1"
       d="m -1974.4004,1255.247 15.8,67.0001 c 1.7853,7.1443 8.1644,13.7802 14.8,14.7999 l 75,6.2 6.4,4 112,0 6.4,-4 75,-6.2 c 6.6356,-1.0197 13.0146,-7.6556 14.8,-14.7999 l 15.8,-67.0001 -112,-8 -112,0 z"
       id="path4282"
       inkscape:connector-curvature="0"
       sodipodi:nodetypes="ccccccccccccc" />
    <path
       sodipodi:nodetypes="cccsssscccccccc"
       inkscape:connector-curvature="0"
       id="path4137"
       d="m -1750.4004,1519.247 0,-444 -34,-4 0,-12 c 0,-4.432 -3.568,-8 -8,-8 l -28,0 c -4.432,0 -8,3.568 -8,8 l 0,12 -34,4 0,444 28,0 0,70 56,0 0,-70 z"
       style="fill:#000000;fill-opacity:1;stroke:none;stroke-width:1.20000005;stroke-linejoin:miter;stroke-miterlimit:4;stroke-dasharray:none;stroke-dashoffset:0;stroke-opacity:1" />
    <circle
       style="fill:#006330;fill-opacity:1;stroke:none;stroke-width:1.20000005;stroke-linejoin:miter;stroke-miterlimit:4;stroke-dasharray:none;stroke-dashoffset:0;stroke-opacity:1"
       id="path4168"
       cx="-1806.4004"
       cy="1427.2469"
       r="48" />
    <circle
       r="48"
       cy="1163.2469"
       cx="-1806.4004"
       id="circle4170"
       style="fill:#c0111e;fill-opacity:1;stroke:none;stroke-width:1.20000005;stroke-linejoin:miter;stroke-miterlimit:4;stroke-dasharray:none;stroke-dashoffset:0;stroke-opacity:1" />
    <circle
       style="fill:#f39100;fill-opacity:1;stroke:none;stroke-width:1.20000005;stroke-linejoin:miter;stroke-miterlimit:4;stroke-dasharray:none;stroke-dashoffset:0;stroke-opacity:1"
       id="circle4172"
       cx="-1806.4004"
       cy="1295.2469"
       r="48" />
  </g>
</svg>
